<?xml version="1.0" encoding="UTF-8" standalone="no"?>
<!-- Created with Inkscape (http://www.inkscape.org/) -->
<svg
   xmlns:dc="http://purl.org/dc/elements/1.1/"
   xmlns:cc="http://creativecommons.org/ns#"
   xmlns:rdf="http://www.w3.org/1999/02/22-rdf-syntax-ns#"
   xmlns:svg="http://www.w3.org/2000/svg"
   xmlns="http://www.w3.org/2000/svg"
   xmlns:xlink="http://www.w3.org/1999/xlink"
   xmlns:sodipodi="http://sodipodi.sourceforge.net/DTD/sodipodi-0.dtd"
   xmlns:inkscape="http://www.inkscape.org/namespaces/inkscape"
   id="svg2"
   sodipodi:version="0.32"
   inkscape:version="0.46"
   width="144"
   height="60"
   version="1.0"
   sodipodi:docbase="D:\olek\Pulpit\svg\inne niż herby\bar\ribbons"
   sodipodi:docname="RUS_Georgievsky_Krest_2st_BAR.svg"
   inkscape:export-filename="D:\olek\Pulpit\svg\inne niż herby\bar\ribbons\kkk.png"
   inkscape:export-xdpi="87.080002"
   inkscape:export-ydpi="87.080002"
   inkscape:output_extension="org.inkscape.output.svg.inkscape">
  <metadata
     id="metadata7">
    <rdf:RDF>
      <cc:Work
         rdf:about="">
        <dc:format>image/svg+xml</dc:format>
        <dc:type
           rdf:resource="http://purl.org/dc/dcmitype/StillImage" />
        <dc:title />
        <dc:creator>
          <cc:Agent>
            <dc:title />
          </cc:Agent>
        </dc:creator>
        <cc:license
           rdf:resource="" />
      </cc:Work>
    </rdf:RDF>
  </metadata>
  <defs
     id="defs5">
    <linearGradient
       id="linearGradient3257">
      <stop
         style="stop-color:#ffed81;stop-opacity:1;"
         offset="0"
         id="stop3259" />
      <stop
         id="stop3265"
         offset="0.33000001"
         style="stop-color:#ffcd00;stop-opacity:1;" />
      <stop
         style="stop-color:#ffcd00;stop-opacity:1;"
         offset="0.33000001"
         id="stop3267" />
      <stop
         id="stop3269"
         offset="0.58999997"
         style="stop-color:#ffed81;stop-opacity:1;" />
      <stop
         style="stop-color:#ffcc00;stop-opacity:1;"
         offset="1"
         id="stop3271" />
    </linearGradient>
    <inkscape:perspective
       sodipodi:type="inkscape:persp3d"
       inkscape:vp_x="0 : 30 : 1"
       inkscape:vp_y="0 : 1000 : 0"
       inkscape:vp_z="218 : 30 : 1"
       inkscape:persp3d-origin="109 : 20 : 1"
       id="perspective33" />
    <linearGradient
       id="linearGradient3114">
      <stop
         style="stop-color:#ffffff;stop-opacity:1;"
         offset="0"
         id="stop3116" />
      <stop
         id="stop3135"
         offset="0.61538464"
         style="stop-color:#ffffff;stop-opacity:1;" />
      <stop
         id="stop3133"
         offset="1"
         style="stop-color:#c8c8c8;stop-opacity:1;" />
    </linearGradient>
    <inkscape:perspective
       id="perspective3239"
       inkscape:persp3d-origin="372.04724 : 350.78739 : 1"
       inkscape:vp_z="744.09448 : 526.18109 : 1"
       inkscape:vp_y="0 : 1000 : 0"
       inkscape:vp_x="0 : 526.18109 : 1"
       sodipodi:type="inkscape:persp3d" />
    <radialGradient
       inkscape:collect="always"
       xlink:href="#linearGradient3257"
       id="radialGradient3263"
       cx="-236.8732"
       cy="62.154369"
       fx="-236.8732"
       fy="62.154369"
       r="6.390625"
       gradientTransform="matrix(1.4286461,0.6018588,-1.2044547,2.8590423,176.39688,27.016593)"
       gradientUnits="userSpaceOnUse" />
    <radialGradient
       inkscape:collect="always"
       xlink:href="#linearGradient3257"
       id="radialGradient3279"
       cx="-237.55289"
       cy="97.472351"
       fx="-237.55289"
       fy="97.472351"
       r="14.15625"
       gradientTransform="matrix(0.5990075,0.5494353,-1.1495206,1.2532355,16.789598,105.83645)"
       gradientUnits="userSpaceOnUse" />
    <radialGradient
       inkscape:collect="always"
       xlink:href="#linearGradient3257"
       id="radialGradient3287"
       cx="-236.87318"
       cy="133.47003"
       fx="-236.87318"
       fy="133.47003"
       r="21.9375"
       gradientTransform="matrix(0.2637358,0.4222198,-1.0000004,0.6246415,-40.931152,150.11163)"
       gradientUnits="userSpaceOnUse" />
    <radialGradient
       inkscape:collect="always"
       xlink:href="#linearGradient3257"
       id="radialGradient3295"
       cx="-236.8732"
       cy="169.12787"
       fx="-236.8732"
       fy="169.12787"
       r="22.078125"
       gradientTransform="matrix(0.4370891,0.6421284,-1.3571515,0.9237967,96.193629,164.99112)"
       gradientUnits="userSpaceOnUse" />
    <radialGradient
       inkscape:collect="always"
       xlink:href="#linearGradient3257"
       id="radialGradient3201"
       gradientUnits="userSpaceOnUse"
       gradientTransform="matrix(0.874264,0.8019124,-1.6777495,1.8291235,443.21819,42.207571)"
       cx="-237.55289"
       cy="97.472351"
       fx="-237.55289"
       fy="97.472351"
       r="14.15625" />
  </defs>
  <sodipodi:namedview
     inkscape:window-height="1024"
     inkscape:window-width="1920"
     inkscape:pageshadow="2"
     inkscape:pageopacity="0.0"
     borderopacity="1.0"
     bordercolor="#666666"
     pagecolor="#ffffff"
     id="base"
     borderlayer="top"
     inkscape:zoom="2.9425026"
     inkscape:cx="-78.739167"
     inkscape:cy="-40.61534"
     inkscape:window-x="-4"
     inkscape:window-y="-4"
     inkscape:current-layer="layer1"
     showguides="true"
     inkscape:guide-bbox="true"
     showgrid="false" />
  <g
     inkscape:groupmode="layer"
     id="layer4"
     inkscape:label="f"
     style="display:inline">
    <g
       id="g7112"
       transform="translate(-6.39e-2,-7.5)" />
  </g>
  <g
     inkscape:groupmode="layer"
     id="layer3"
     inkscape:label="d"
     style="display:inline">
    <rect
       style="opacity:1;fill:#ff8c2a;fill-opacity:1;fill-rule:evenodd;stroke:#000000;stroke-width:2;stroke-linecap:butt;stroke-linejoin:miter;marker:none;marker-start:none;marker-mid:none;marker-end:none;stroke-miterlimit:4;stroke-dasharray:none;stroke-dashoffset:0;stroke-opacity:0.19607843000000000;visibility:visible;display:inline;overflow:visible"
       id="rect3997"
       width="144"
       height="60"
       x="0"
       y="0" />
    <g
       id="g3249"
       style="fill:#343434;fill-opacity:1">
      <rect
         y="0"
         x="4"
         height="60"
         width="28"
         id="rect4873"
         style="fill:#343434;fill-opacity:1;fill-rule:evenodd;stroke:none;stroke-width:1.99999988000000010;stroke-linecap:butt;stroke-linejoin:miter;marker:none;marker-start:none;marker-mid:none;marker-end:none;stroke-miterlimit:4;stroke-dasharray:none;stroke-dashoffset:0;stroke-opacity:0.19607843000000000;visibility:visible;display:inline;overflow:visible" />
      <rect
         y="0"
         x="58"
         height="60"
         width="28"
         id="rect3245"
         style="fill:#343434;fill-opacity:1;fill-rule:evenodd;stroke:none;stroke-width:1.99999988000000010;stroke-linecap:butt;stroke-linejoin:miter;marker:none;marker-start:none;marker-mid:none;marker-end:none;stroke-miterlimit:4;stroke-dasharray:none;stroke-dashoffset:0;stroke-opacity:0.19607843000000000;visibility:visible;display:inline;overflow:visible" />
      <rect
         y="0"
         x="112"
         height="60"
         width="28"
         id="rect3247"
         style="fill:#343434;fill-opacity:1;fill-rule:evenodd;stroke:none;stroke-width:1.99999988000000010;stroke-linecap:butt;stroke-linejoin:miter;marker:none;marker-start:none;marker-mid:none;marker-end:none;stroke-miterlimit:4;stroke-dasharray:none;stroke-dashoffset:0;stroke-opacity:0.19607843000000000;visibility:visible;display:inline;overflow:visible" />
    </g>
  </g>
  <g
     inkscape:groupmode="layer"
     id="layer1"
     inkscape:label="napisy">
    <path
       style="fill:none;fill-opacity:0.19607843;fill-rule:evenodd;stroke:#000000;stroke-width:2.00000072;stroke-linecap:butt;stroke-linejoin:miter;stroke-miterlimit:4;stroke-dasharray:none;stroke-opacity:0.39215686"
       d="M 0.4938192,1.063824 L 143.506,1.063824"
       id="path1327"
       sodipodi:nodetypes="cc" />
    <path
       style="fill:none;fill-opacity:0.19607843;fill-rule:evenodd;stroke:#000000;stroke-width:2.00000072;stroke-linecap:butt;stroke-linejoin:miter;stroke-miterlimit:4;stroke-dasharray:none;stroke-opacity:0.39215686"
       d="M 0.4936384,58.936176 L 143.506,58.936"
       id="path1329"
       sodipodi:nodetypes="cc" />
    <path
       style="fill:none;fill-opacity:0.19607843;fill-rule:evenodd;stroke:#000000;stroke-width:2.00000072;stroke-linecap:butt;stroke-linejoin:miter;stroke-miterlimit:4;stroke-dasharray:none;stroke-opacity:0.39215686"
       d="M 0.4936384,5.1975627 L 143.506,5.1975627"
       id="path1331"
       sodipodi:nodetypes="cc" />
    <path
       style="fill:none;fill-opacity:0.19607843;fill-rule:evenodd;stroke:#000000;stroke-width:2.00000072;stroke-linecap:butt;stroke-linejoin:miter;stroke-miterlimit:4;stroke-dasharray:none;stroke-opacity:0.39215686"
       d="M 0.4936384,9.3313022 L 143.506,9.3313022"
       id="path1333"
       sodipodi:nodetypes="cc" />
    <path
       style="fill:none;fill-opacity:0.19607843;fill-rule:evenodd;stroke:#000000;stroke-width:2.00000072;stroke-linecap:butt;stroke-linejoin:miter;stroke-miterlimit:4;stroke-dasharray:none;stroke-opacity:0.39215686"
       d="M 0.4936384,13.465041 L 143.506,13.465041"
       id="path1335"
       sodipodi:nodetypes="cc" />
    <path
       style="fill:none;fill-opacity:0.19607843;fill-rule:evenodd;stroke:#000000;stroke-width:2.00000072;stroke-linecap:butt;stroke-linejoin:miter;stroke-miterlimit:4;stroke-dasharray:none;stroke-opacity:0.39215686"
       d="M 0.4936384,17.598782 L 143.506,17.598782"
       id="path1337"
       sodipodi:nodetypes="cc" />
    <path
       style="fill:none;fill-opacity:0.19607843;fill-rule:evenodd;stroke:#000000;stroke-width:2.00000072;stroke-linecap:butt;stroke-linejoin:miter;stroke-miterlimit:4;stroke-dasharray:none;stroke-opacity:0.39215686"
       d="M 0.4936384,21.732521 L 143.506,21.732521"
       id="path1339"
       sodipodi:nodetypes="cc" />
    <path
       style="fill:none;fill-opacity:0.19607843;fill-rule:evenodd;stroke:#000000;stroke-width:2.00000072;stroke-linecap:butt;stroke-linejoin:miter;stroke-miterlimit:4;stroke-dasharray:none;stroke-opacity:0.39215686"
       d="M 0.4936384,25.866261 L 143.506,25.866261"
       id="path1341"
       sodipodi:nodetypes="cc" />
    <path
       style="fill:none;fill-opacity:0.19607843;fill-rule:evenodd;stroke:#000000;stroke-width:2.00000072;stroke-linecap:butt;stroke-linejoin:miter;stroke-miterlimit:4;stroke-dasharray:none;stroke-opacity:0.39215686"
       d="M 0.4936384,30 L 143.506,30"
       id="path1343"
       sodipodi:nodetypes="cc" />
    <path
       style="fill:none;fill-opacity:0.19607843;fill-rule:evenodd;stroke:#000000;stroke-width:2.00000072;stroke-linecap:butt;stroke-linejoin:miter;stroke-miterlimit:4;stroke-dasharray:none;stroke-opacity:0.39215686"
       d="M 0.4936384,34.133739 L 143.506,34.133739"
       id="path1345"
       sodipodi:nodetypes="cc" />
    <path
       style="fill:none;fill-opacity:0.19607843;fill-rule:evenodd;stroke:#000000;stroke-width:2.00000072;stroke-linecap:butt;stroke-linejoin:miter;stroke-miterlimit:4;stroke-dasharray:none;stroke-opacity:0.39215686"
       d="M 0.4936384,38.267478 L 143.506,38.267478"
       id="path1347"
       sodipodi:nodetypes="cc" />
    <path
       style="fill:none;fill-opacity:0.19607843;fill-rule:evenodd;stroke:#000000;stroke-width:2.00000072;stroke-linecap:butt;stroke-linejoin:miter;stroke-miterlimit:4;stroke-dasharray:none;stroke-opacity:0.39215686"
       d="M 0.4936384,42.401217 L 143.506,42.401217"
       id="path1349"
       sodipodi:nodetypes="cc" />
    <path
       style="fill:none;fill-opacity:0.19607843;fill-rule:evenodd;stroke:#000000;stroke-width:2.00000072;stroke-linecap:butt;stroke-linejoin:miter;stroke-miterlimit:4;stroke-dasharray:none;stroke-opacity:0.39215686"
       d="M 0.4936384,46.534958 L 143.506,46.535"
       id="path1351"
       sodipodi:nodetypes="cc" />
    <path
       style="fill:none;fill-opacity:0.19607843;fill-rule:evenodd;stroke:#000000;stroke-width:2.00000072;stroke-linecap:butt;stroke-linejoin:miter;stroke-miterlimit:4;stroke-dasharray:none;stroke-opacity:0.39215686"
       d="M 0.4936384,50.668697 L 143.506,50.668697"
       id="path1353"
       sodipodi:nodetypes="cc" />
    <path
       style="fill:none;fill-opacity:0.19607843;fill-rule:evenodd;stroke:#000000;stroke-width:2.00000072;stroke-linecap:butt;stroke-linejoin:miter;stroke-miterlimit:4;stroke-dasharray:none;stroke-opacity:0.39215686"
       d="M 0.4936384,54.802437 L 143.506,54.802437"
       id="path1355"
       sodipodi:nodetypes="cc" />
    <path
       id="use2423"
       d="M 51.338656,10.000002 L 51.338656,12.417334 C 53.809187,12.569401 55.207904,12.755651 55.625999,12.964654 C 55.911058,13.116721 56.150507,13.361877 56.264539,13.694414 C 56.378557,14.027025 56.454569,15.902743 56.492589,19.304448 C 56.568601,24.283575 56.583795,28.084417 56.583809,30.706965 C 56.583795,37.548477 56.53439,42.200697 56.401369,44.709238 C 56.325343,45.906507 56.104897,46.640068 55.762829,46.944127 C 55.420746,47.248207 53.961225,47.495257 51.338656,47.628277 L 51.338656,49.999997 L 60.916762,49.817557 C 62.589111,49.817557 64.489538,49.832768 66.618016,49.908777 L 69.993159,49.999997 L 69.993159,47.628277 C 67.731645,47.476237 66.395644,47.314718 66.025086,47.172177 C 65.654484,47.029657 65.409329,46.826318 65.295325,46.579247 C 65.010252,46.028137 64.850609,44.296847 64.793615,41.379707 C 64.736592,38.462577 64.70238,33.329557 64.702395,25.917903 C 64.70238,20.349713 64.804999,16.613501 64.976055,14.789055 C 65.071055,13.857881 65.282,13.266863 65.614596,13.010264 C 65.947148,12.753739 67.408566,12.569417 69.993159,12.417334 L 69.993159,10.000002 C 67.104504,10.152069 63.850998,10.228096 60.278222,10.228052 C 58.206753,10.228096 55.253514,10.152085 51.338656,10.000002 z M 74.006841,10.000002 L 74.006841,12.417334 C 76.477373,12.569401 77.9217,12.755651 78.339794,12.964654 C 78.624853,13.116721 78.818692,13.361877 78.932725,13.694414 C 79.046743,14.027025 79.122754,15.902743 79.160775,19.304448 C 79.236787,24.283575 79.29759,28.084417 79.297605,30.706965 C 79.29759,37.548477 79.202576,42.200697 79.069555,44.709238 C 78.993528,45.906507 78.773082,46.640068 78.431014,46.944127 C 78.088932,47.248207 76.629411,47.495257 74.006841,47.628277 L 74.006841,49.999997 L 83.630558,49.817557 C 85.302906,49.817557 87.203334,49.832768 89.331812,49.908777 L 92.661344,49.999997 L 92.661344,47.628277 C 90.399831,47.476237 89.109439,47.314718 88.738881,47.172177 C 88.36828,47.029657 88.123124,46.826318 88.009121,46.579247 C 87.724047,46.028137 87.564405,44.296847 87.507411,41.379707 C 87.450387,38.462577 87.416176,33.329557 87.416191,25.917903 C 87.416176,20.349713 87.473185,16.613501 87.644241,14.789055 C 87.739241,13.857881 87.950186,13.266863 88.282781,13.010264 C 88.615333,12.753739 90.076751,12.569417 92.661344,12.417334 L 92.661344,10.000002 C 89.772689,10.152069 86.564794,10.228096 82.992018,10.228052 C 80.920549,10.228096 77.9217,10.152085 74.006841,10.000002 z"
       style="fill:#999999;fill-opacity:1;fill-rule:nonzero;stroke:#9d6300;stroke-width:2.5;stroke-linecap:round;stroke-linejoin:round;stroke-miterlimit:4;stroke-dasharray:none;stroke-dashoffset:0.4;stroke-opacity:1;display:inline" />
    <path
       id="use2421"
       d="M 51.338659,9.9999989 L 51.338659,12.417331 C 53.80919,12.569398 55.207907,12.755648 55.626002,12.964651 C 55.911061,13.116718 56.15051,13.361874 56.264542,13.694411 C 56.37856,14.027022 56.454572,15.90274 56.492592,19.304445 C 56.568604,24.283572 56.583798,28.084413 56.583812,30.706962 C 56.583798,37.548474 56.534393,42.200697 56.401372,44.709234 C 56.325346,45.906508 56.1049,46.640064 55.762832,46.944126 C 55.420749,47.248202 53.961228,47.495255 51.338659,47.628276 L 51.338659,49.999998 L 60.916765,49.817558 C 62.589114,49.817558 64.489541,49.832766 66.618019,49.908778 L 69.993162,49.999998 L 69.993162,47.628276 C 67.731648,47.476238 66.395647,47.314713 66.025089,47.172176 C 65.654487,47.029654 65.409332,46.826313 65.295328,46.579245 C 65.010255,46.02813 64.850612,44.296846 64.793618,41.379702 C 64.736595,38.462572 64.702383,33.329558 64.702398,25.9179 C 64.702383,20.34971 64.805002,16.613497 64.976058,14.789052 C 65.071058,13.857878 65.282003,13.266859 65.614599,13.010261 C 65.947151,12.753736 67.408569,12.569413 69.993162,12.417331 L 69.993162,9.9999989 C 67.104507,10.152066 63.851001,10.228093 60.278225,10.228049 C 58.206756,10.228093 55.253517,10.152081 51.338659,9.9999989 z M 74.006844,9.9999989 L 74.006844,12.417331 C 76.477376,12.569398 77.921703,12.755648 78.339797,12.964651 C 78.624856,13.116718 78.818695,13.361874 78.932728,13.694411 C 79.046746,14.027022 79.122757,15.90274 79.160778,19.304445 C 79.23679,24.283572 79.297593,28.084413 79.297608,30.706962 C 79.297593,37.548474 79.202579,42.200697 79.069558,44.709234 C 78.993531,45.906508 78.773085,46.640064 78.431017,46.944126 C 78.088935,47.248202 76.629414,47.495255 74.006844,47.628276 L 74.006844,49.999998 L 83.630561,49.817558 C 85.302909,49.817558 87.203337,49.832766 89.331815,49.908778 L 92.661347,49.999998 L 92.661347,47.628276 C 90.399834,47.476238 89.109442,47.314713 88.738884,47.172176 C 88.368283,47.029654 88.123127,46.826313 88.009124,46.579245 C 87.72405,46.02813 87.564408,44.296846 87.507414,41.379702 C 87.45039,38.462572 87.416179,33.329558 87.416194,25.9179 C 87.416179,20.34971 87.473188,16.613497 87.644244,14.789052 C 87.739244,13.857878 87.950189,13.266859 88.282784,13.010261 C 88.615336,12.753736 90.076754,12.569413 92.661347,12.417331 L 92.661347,9.9999989 C 89.772692,10.152066 86.564797,10.228093 82.992021,10.228049 C 80.920552,10.228093 77.921703,10.152081 74.006844,9.9999989 z"
       style="fill:url(#radialGradient3201);fill-opacity:1;fill-rule:nonzero;stroke:none;stroke-width:1.574;stroke-linecap:round;stroke-linejoin:round;stroke-miterlimit:4;stroke-dasharray:none;stroke-dashoffset:0.4;stroke-opacity:1;display:inline" />
  </g>
</svg>
