<?xml version="1.0" encoding="UTF-8" standalone="no"?>
<!-- Created with Inkscape (http://www.inkscape.org/) -->
<svg
   xmlns:dc="http://purl.org/dc/elements/1.1/"
   xmlns:cc="http://creativecommons.org/ns#"
   xmlns:rdf="http://www.w3.org/1999/02/22-rdf-syntax-ns#"
   xmlns:svg="http://www.w3.org/2000/svg"
   xmlns="http://www.w3.org/2000/svg"
   xmlns:xlink="http://www.w3.org/1999/xlink"
   xmlns:sodipodi="http://sodipodi.sourceforge.net/DTD/sodipodi-0.dtd"
   xmlns:inkscape="http://www.inkscape.org/namespaces/inkscape"
   id="svg2"
   sodipodi:version="0.32"
   inkscape:version="0.46"
   width="144"
   height="60"
   version="1.0"
   sodipodi:docbase="D:\olek\Pulpit\svg\inne niż herby\bar\ribbons"
   sodipodi:docname="RUS_Georgievsky_Krest_3st_BAR.svg"
   inkscape:export-filename="D:\olek\Pulpit\svg\inne niż herby\bar\ribbons\kkk.png"
   inkscape:export-xdpi="87.080002"
   inkscape:export-ydpi="87.080002"
   inkscape:output_extension="org.inkscape.output.svg.inkscape">
  <metadata
     id="metadata7">
    <rdf:RDF>
      <cc:Work
         rdf:about="">
        <dc:format>image/svg+xml</dc:format>
        <dc:type
           rdf:resource="http://purl.org/dc/dcmitype/StillImage" />
        <dc:title />
        <dc:creator>
          <cc:Agent>
            <dc:title />
          </cc:Agent>
        </dc:creator>
        <cc:license
           rdf:resource="" />
      </cc:Work>
    </rdf:RDF>
  </metadata>
  <defs
     id="defs5">
    <linearGradient
       id="linearGradient3257">
      <stop
         style="stop-color:#ffed81;stop-opacity:1;"
         offset="0"
         id="stop3259" />
      <stop
         id="stop3265"
         offset="0.33000001"
         style="stop-color:#ffcd00;stop-opacity:1;" />
      <stop
         style="stop-color:#ffcd00;stop-opacity:1;"
         offset="0.33000001"
         id="stop3267" />
      <stop
         id="stop3269"
         offset="0.58999997"
         style="stop-color:#ffed81;stop-opacity:1;" />
      <stop
         style="stop-color:#ffcc00;stop-opacity:1;"
         offset="1"
         id="stop3271" />
    </linearGradient>
    <inkscape:perspective
       sodipodi:type="inkscape:persp3d"
       inkscape:vp_x="0 : 30 : 1"
       inkscape:vp_y="0 : 1000 : 0"
       inkscape:vp_z="218 : 30 : 1"
       inkscape:persp3d-origin="109 : 20 : 1"
       id="perspective33" />
    <linearGradient
       id="linearGradient3114">
      <stop
         style="stop-color:#ffffff;stop-opacity:1;"
         offset="0"
         id="stop3116" />
      <stop
         id="stop3135"
         offset="0.61538464"
         style="stop-color:#ffffff;stop-opacity:1;" />
      <stop
         id="stop3133"
         offset="1"
         style="stop-color:#c8c8c8;stop-opacity:1;" />
    </linearGradient>
    <inkscape:perspective
       id="perspective3239"
       inkscape:persp3d-origin="372.04724 : 350.78739 : 1"
       inkscape:vp_z="744.09448 : 526.18109 : 1"
       inkscape:vp_y="0 : 1000 : 0"
       inkscape:vp_x="0 : 526.18109 : 1"
       sodipodi:type="inkscape:persp3d" />
    <radialGradient
       inkscape:collect="always"
       xlink:href="#linearGradient3257"
       id="radialGradient3263"
       cx="-236.8732"
       cy="62.154369"
       fx="-236.8732"
       fy="62.154369"
       r="6.390625"
       gradientTransform="matrix(1.4286461,0.6018588,-1.2044547,2.8590423,176.39688,27.016593)"
       gradientUnits="userSpaceOnUse" />
    <radialGradient
       inkscape:collect="always"
       xlink:href="#linearGradient3257"
       id="radialGradient3279"
       cx="-237.55289"
       cy="97.472351"
       fx="-237.55289"
       fy="97.472351"
       r="14.15625"
       gradientTransform="matrix(0.5990075,0.5494353,-1.1495206,1.2532355,16.789598,105.83645)"
       gradientUnits="userSpaceOnUse" />
    <radialGradient
       inkscape:collect="always"
       xlink:href="#linearGradient3257"
       id="radialGradient3287"
       cx="-236.87318"
       cy="133.47003"
       fx="-236.87318"
       fy="133.47003"
       r="21.9375"
       gradientTransform="matrix(0.2637358,0.4222198,-1.0000004,0.6246415,-40.931152,150.11163)"
       gradientUnits="userSpaceOnUse" />
    <radialGradient
       inkscape:collect="always"
       xlink:href="#linearGradient3257"
       id="radialGradient3295"
       cx="-236.8732"
       cy="169.12787"
       fx="-236.8732"
       fy="169.12787"
       r="22.078125"
       gradientTransform="matrix(0.4370891,0.6421284,-1.3571515,0.9237967,96.193629,164.99112)"
       gradientUnits="userSpaceOnUse" />
    <radialGradient
       inkscape:collect="always"
       xlink:href="#linearGradient3257"
       id="radialGradient3259"
       gradientUnits="userSpaceOnUse"
       gradientTransform="matrix(0.384928,0.6162387,-1.4595217,0.9116774,357.98154,54.288761)"
       cx="-236.87318"
       cy="133.47003"
       fx="-236.87318"
       fy="133.47003"
       r="21.9375" />
  </defs>
  <sodipodi:namedview
     inkscape:window-height="1024"
     inkscape:window-width="1920"
     inkscape:pageshadow="2"
     inkscape:pageopacity="0.0"
     borderopacity="1.0"
     bordercolor="#666666"
     pagecolor="#ffffff"
     id="base"
     borderlayer="top"
     inkscape:zoom="2.9425026"
     inkscape:cx="-140.69816"
     inkscape:cy="-54.209211"
     inkscape:window-x="-4"
     inkscape:window-y="-4"
     inkscape:current-layer="layer1"
     showguides="true"
     inkscape:guide-bbox="true"
     showgrid="false" />
  <g
     inkscape:groupmode="layer"
     id="layer4"
     inkscape:label="f"
     style="display:inline">
    <g
       id="g7112"
       transform="translate(-6.39e-2,-7.5)" />
  </g>
  <g
     inkscape:groupmode="layer"
     id="layer3"
     inkscape:label="d"
     style="display:inline">
    <rect
       style="opacity:1;fill:#ff8c2a;fill-opacity:1;fill-rule:evenodd;stroke:#000000;stroke-width:2;stroke-linecap:butt;stroke-linejoin:miter;marker:none;marker-start:none;marker-mid:none;marker-end:none;stroke-miterlimit:4;stroke-dasharray:none;stroke-dashoffset:0;stroke-opacity:0.19607843000000000;visibility:visible;display:inline;overflow:visible"
       id="rect3997"
       width="144"
       height="60"
       x="0"
       y="0" />
    <g
       id="g3249"
       style="fill:#343434;fill-opacity:1">
      <rect
         y="0"
         x="4"
         height="60"
         width="28"
         id="rect4873"
         style="fill:#343434;fill-opacity:1;fill-rule:evenodd;stroke:none;stroke-width:1.99999988000000010;stroke-linecap:butt;stroke-linejoin:miter;marker:none;marker-start:none;marker-mid:none;marker-end:none;stroke-miterlimit:4;stroke-dasharray:none;stroke-dashoffset:0;stroke-opacity:0.19607843000000000;visibility:visible;display:inline;overflow:visible" />
      <rect
         y="0"
         x="58"
         height="60"
         width="28"
         id="rect3245"
         style="fill:#343434;fill-opacity:1;fill-rule:evenodd;stroke:none;stroke-width:1.99999988000000010;stroke-linecap:butt;stroke-linejoin:miter;marker:none;marker-start:none;marker-mid:none;marker-end:none;stroke-miterlimit:4;stroke-dasharray:none;stroke-dashoffset:0;stroke-opacity:0.19607843000000000;visibility:visible;display:inline;overflow:visible" />
      <rect
         y="0"
         x="112"
         height="60"
         width="28"
         id="rect3247"
         style="fill:#343434;fill-opacity:1;fill-rule:evenodd;stroke:none;stroke-width:1.99999988000000010;stroke-linecap:butt;stroke-linejoin:miter;marker:none;marker-start:none;marker-mid:none;marker-end:none;stroke-miterlimit:4;stroke-dasharray:none;stroke-dashoffset:0;stroke-opacity:0.19607843000000000;visibility:visible;display:inline;overflow:visible" />
    </g>
  </g>
  <g
     inkscape:groupmode="layer"
     id="layer1"
     inkscape:label="napisy">
    <path
       style="fill:none;fill-opacity:0.19607843;fill-rule:evenodd;stroke:#000000;stroke-width:2.00000072;stroke-linecap:butt;stroke-linejoin:miter;stroke-miterlimit:4;stroke-dasharray:none;stroke-opacity:0.39215686"
       d="M 0.4938192,1.063824 L 143.506,1.063824"
       id="path1327"
       sodipodi:nodetypes="cc" />
    <path
       style="fill:none;fill-opacity:0.19607843;fill-rule:evenodd;stroke:#000000;stroke-width:2.00000072;stroke-linecap:butt;stroke-linejoin:miter;stroke-miterlimit:4;stroke-dasharray:none;stroke-opacity:0.39215686"
       d="M 0.4936384,58.936176 L 143.506,58.936"
       id="path1329"
       sodipodi:nodetypes="cc" />
    <path
       style="fill:none;fill-opacity:0.19607843;fill-rule:evenodd;stroke:#000000;stroke-width:2.00000072;stroke-linecap:butt;stroke-linejoin:miter;stroke-miterlimit:4;stroke-dasharray:none;stroke-opacity:0.39215686"
       d="M 0.4936384,5.1975627 L 143.506,5.1975627"
       id="path1331"
       sodipodi:nodetypes="cc" />
    <path
       style="fill:none;fill-opacity:0.19607843;fill-rule:evenodd;stroke:#000000;stroke-width:2.00000072;stroke-linecap:butt;stroke-linejoin:miter;stroke-miterlimit:4;stroke-dasharray:none;stroke-opacity:0.39215686"
       d="M 0.4936384,9.3313022 L 143.506,9.3313022"
       id="path1333"
       sodipodi:nodetypes="cc" />
    <path
       style="fill:none;fill-opacity:0.19607843;fill-rule:evenodd;stroke:#000000;stroke-width:2.00000072;stroke-linecap:butt;stroke-linejoin:miter;stroke-miterlimit:4;stroke-dasharray:none;stroke-opacity:0.39215686"
       d="M 0.4936384,13.465041 L 143.506,13.465041"
       id="path1335"
       sodipodi:nodetypes="cc" />
    <path
       style="fill:none;fill-opacity:0.19607843;fill-rule:evenodd;stroke:#000000;stroke-width:2.00000072;stroke-linecap:butt;stroke-linejoin:miter;stroke-miterlimit:4;stroke-dasharray:none;stroke-opacity:0.39215686"
       d="M 0.4936384,17.598782 L 143.506,17.598782"
       id="path1337"
       sodipodi:nodetypes="cc" />
    <path
       style="fill:none;fill-opacity:0.19607843;fill-rule:evenodd;stroke:#000000;stroke-width:2.00000072;stroke-linecap:butt;stroke-linejoin:miter;stroke-miterlimit:4;stroke-dasharray:none;stroke-opacity:0.39215686"
       d="M 0.4936384,21.732521 L 143.506,21.732521"
       id="path1339"
       sodipodi:nodetypes="cc" />
    <path
       style="fill:none;fill-opacity:0.19607843;fill-rule:evenodd;stroke:#000000;stroke-width:2.00000072;stroke-linecap:butt;stroke-linejoin:miter;stroke-miterlimit:4;stroke-dasharray:none;stroke-opacity:0.39215686"
       d="M 0.4936384,25.866261 L 143.506,25.866261"
       id="path1341"
       sodipodi:nodetypes="cc" />
    <path
       style="fill:none;fill-opacity:0.19607843;fill-rule:evenodd;stroke:#000000;stroke-width:2.00000072;stroke-linecap:butt;stroke-linejoin:miter;stroke-miterlimit:4;stroke-dasharray:none;stroke-opacity:0.39215686"
       d="M 0.4936384,30 L 143.506,30"
       id="path1343"
       sodipodi:nodetypes="cc" />
    <path
       style="fill:none;fill-opacity:0.19607843;fill-rule:evenodd;stroke:#000000;stroke-width:2.00000072;stroke-linecap:butt;stroke-linejoin:miter;stroke-miterlimit:4;stroke-dasharray:none;stroke-opacity:0.39215686"
       d="M 0.4936384,34.133739 L 143.506,34.133739"
       id="path1345"
       sodipodi:nodetypes="cc" />
    <path
       style="fill:none;fill-opacity:0.19607843;fill-rule:evenodd;stroke:#000000;stroke-width:2.00000072;stroke-linecap:butt;stroke-linejoin:miter;stroke-miterlimit:4;stroke-dasharray:none;stroke-opacity:0.39215686"
       d="M 0.4936384,38.267478 L 143.506,38.267478"
       id="path1347"
       sodipodi:nodetypes="cc" />
    <path
       style="fill:none;fill-opacity:0.19607843;fill-rule:evenodd;stroke:#000000;stroke-width:2.00000072;stroke-linecap:butt;stroke-linejoin:miter;stroke-miterlimit:4;stroke-dasharray:none;stroke-opacity:0.39215686"
       d="M 0.4936384,42.401217 L 143.506,42.401217"
       id="path1349"
       sodipodi:nodetypes="cc" />
    <path
       style="fill:none;fill-opacity:0.19607843;fill-rule:evenodd;stroke:#000000;stroke-width:2.00000072;stroke-linecap:butt;stroke-linejoin:miter;stroke-miterlimit:4;stroke-dasharray:none;stroke-opacity:0.39215686"
       d="M 0.4936384,46.534958 L 143.506,46.535"
       id="path1351"
       sodipodi:nodetypes="cc" />
    <path
       style="fill:none;fill-opacity:0.19607843;fill-rule:evenodd;stroke:#000000;stroke-width:2.00000072;stroke-linecap:butt;stroke-linejoin:miter;stroke-miterlimit:4;stroke-dasharray:none;stroke-opacity:0.39215686"
       d="M 0.4936384,50.668697 L 143.506,50.668697"
       id="path1353"
       sodipodi:nodetypes="cc" />
    <path
       style="fill:none;fill-opacity:0.19607843;fill-rule:evenodd;stroke:#000000;stroke-width:2.00000072;stroke-linecap:butt;stroke-linejoin:miter;stroke-miterlimit:4;stroke-dasharray:none;stroke-opacity:0.39215686"
       d="M 0.4936384,54.802437 L 143.506,54.802437"
       id="path1355"
       sodipodi:nodetypes="cc" />
    <path
       id="use2481"
       d="M 39.981756,9.9999985 L 39.981756,12.417331 C 42.452302,12.569401 43.896615,12.755631 44.314709,12.964651 C 44.599768,13.116721 44.793607,13.361871 44.90764,13.694411 C 45.021658,14.027021 45.097684,15.857111 45.13569,19.258831 C 45.211702,24.237961 45.27252,28.038791 45.27252,30.661341 C 45.27252,37.502861 45.177491,42.200682 45.04447,44.709231 C 44.968443,45.906511 44.747997,46.640062 44.405929,46.944131 C 44.063847,47.248201 42.604326,47.495241 39.981756,47.628281 L 39.981756,50.000001 L 49.605473,49.817561 C 51.277836,49.817561 53.17825,49.832771 55.306728,49.908782 L 58.63626,50.000001 L 58.63626,47.628281 C 56.374747,47.476241 55.08437,47.314711 54.713797,47.172181 C 54.343196,47.029651 54.098054,46.826301 53.984037,46.579241 C 53.698963,46.028132 53.539321,44.296852 53.482326,41.379701 C 53.425303,38.462571 53.391092,33.283931 53.391106,25.872291 C 53.391092,20.304101 53.4481,16.613481 53.619156,14.789051 C 53.714157,13.857881 53.925116,13.266841 54.257697,13.010261 C 54.590249,12.753731 56.051682,12.569401 58.63626,12.417331 L 58.63626,9.9999985 C 55.747605,10.152066 52.539709,10.228092 48.966933,10.228048 C 46.895464,10.228092 43.896615,10.152066 39.981756,9.9999985 z M 62.649943,9.9999985 L 62.649943,12.417331 C 65.120489,12.569401 66.564802,12.755631 66.982896,12.964651 C 67.267955,13.116721 67.507404,13.361871 67.621437,13.694411 C 67.735455,14.027021 67.811467,15.857111 67.849487,19.258831 C 67.925499,24.237961 67.940707,28.038791 67.940707,30.661341 C 67.940707,37.502861 67.891288,42.200682 67.758267,44.709231 C 67.682241,45.906511 67.461794,46.640062 67.119726,46.944131 C 66.777644,47.248201 65.272513,47.495241 62.649943,47.628281 L 62.649943,50.000001 L 72.27366,49.817561 C 73.946023,49.817561 75.846437,49.832771 77.974915,49.908782 L 81.350057,50.000001 L 81.350057,47.628281 C 79.088544,47.476241 77.752557,47.314711 77.381984,47.172181 C 77.011383,47.029651 76.766241,46.826301 76.652224,46.579241 C 76.36715,46.028132 76.207508,44.296852 76.150513,41.379701 C 76.09349,38.462571 76.059279,33.283931 76.059293,25.872291 C 76.059279,20.304101 76.161898,16.613481 76.332953,14.789051 C 76.427954,13.857881 76.638913,13.266841 76.971494,13.010261 C 77.304046,12.753731 78.765479,12.569401 81.350057,12.417331 L 81.350057,9.9999985 C 78.461402,10.152066 75.207896,10.228092 71.63512,10.228048 C 69.563651,10.228092 66.564802,10.152066 62.649943,9.9999985 z M 85.36374,9.9999985 L 85.36374,12.417331 C 87.834286,12.569401 89.278599,12.755631 89.696694,12.964651 C 89.981753,13.116721 90.175592,13.361871 90.289624,13.694411 C 90.403642,14.027021 90.479668,15.857111 90.517674,19.258831 C 90.593686,24.237961 90.654504,28.038791 90.654504,30.661341 C 90.654504,37.502861 90.559475,42.200682 90.426454,44.709231 C 90.350428,45.906511 90.129982,46.640062 89.787914,46.944131 C 89.445831,47.248201 87.98631,47.495241 85.36374,47.628281 L 85.36374,50.000001 L 94.987457,49.817561 C 96.659821,49.817561 98.560234,49.832771 100.68871,49.908782 L 104.01824,50.000001 L 104.01824,47.628281 C 101.75673,47.476241 100.46635,47.314711 100.09578,47.172181 C 99.72518,47.029651 99.480039,46.826301 99.366021,46.579241 C 99.080947,46.028132 98.921319,44.296852 98.86431,41.379701 C 98.807287,38.462571 98.773076,33.283931 98.77309,25.872291 C 98.773076,20.304101 98.830099,16.613481 99.001141,14.789051 C 99.096141,13.857881 99.3071,13.266841 99.639681,13.010261 C 99.972233,12.753731 101.43367,12.569401 104.01824,12.417331 L 104.01824,9.9999985 C 101.12959,10.152066 97.921693,10.228092 94.348917,10.228048 C 92.277448,10.228092 89.278599,10.152066 85.36374,9.9999985 z"
       style="fill:#999999;fill-opacity:1;fill-rule:nonzero;stroke:#9d6300;stroke-width:2.5;stroke-linecap:round;stroke-linejoin:round;stroke-miterlimit:4;stroke-dasharray:none;stroke-dashoffset:0.4;stroke-opacity:1;display:inline" />
    <path
       id="use2479"
       d="M 39.981757,10.000002 L 39.981757,12.417334 C 42.452303,12.569402 43.896616,12.755636 44.31471,12.964654 C 44.599769,13.116722 44.793608,13.361878 44.907641,13.694415 C 45.021659,14.027025 45.097685,15.857119 45.135691,19.258839 C 45.211703,24.237966 45.272521,28.038793 45.272521,30.661348 C 45.272521,37.502868 45.177492,42.200686 45.044471,44.709238 C 44.968444,45.906513 44.747998,46.640068 44.40593,46.94413 C 44.063848,47.248207 42.604327,47.495245 39.981757,47.628281 L 39.981757,50.000002 L 49.605474,49.817562 C 51.277837,49.817562 53.178251,49.83277 55.306729,49.908782 L 58.636261,50.000002 L 58.636261,47.628281 C 56.374748,47.476242 55.084371,47.314717 54.713798,47.17218 C 54.343197,47.029658 54.098055,46.826303 53.984038,46.57925 C 53.698964,46.028135 53.539322,44.296851 53.482327,41.379706 C 53.425304,38.462576 53.391093,33.283932 53.391107,25.872294 C 53.391093,20.304104 53.448101,16.613486 53.619157,14.789056 C 53.714158,13.857881 53.925117,13.266848 54.257698,13.010264 C 54.59025,12.753739 56.051683,12.569402 58.636261,12.417334 L 58.636261,10.000002 C 55.747606,10.15207 52.53971,10.228096 48.966934,10.228052 C 46.895465,10.228096 43.896616,10.15207 39.981757,10.000002 z M 62.649944,10.000002 L 62.649944,12.417334 C 65.12049,12.569402 66.564803,12.755636 66.982897,12.964654 C 67.267956,13.116722 67.507405,13.361878 67.621438,13.694415 C 67.735456,14.027025 67.811468,15.857119 67.849488,19.258839 C 67.9255,24.237966 67.940708,28.038793 67.940708,30.661348 C 67.940708,37.502868 67.891289,42.200686 67.758268,44.709238 C 67.682242,45.906513 67.461795,46.640068 67.119727,46.94413 C 66.777645,47.248207 65.272514,47.495245 62.649944,47.628281 L 62.649944,50.000002 L 72.273661,49.817562 C 73.946024,49.817562 75.846438,49.83277 77.974916,49.908782 L 81.350058,50.000002 L 81.350058,47.628281 C 79.088545,47.476242 77.752558,47.314717 77.381985,47.17218 C 77.011384,47.029658 76.766242,46.826303 76.652225,46.57925 C 76.367151,46.028135 76.207509,44.296851 76.150514,41.379706 C 76.093491,38.462576 76.05928,33.283932 76.059294,25.872294 C 76.05928,20.304104 76.161899,16.613486 76.332954,14.789056 C 76.427955,13.857881 76.638914,13.266848 76.971495,13.010264 C 77.304047,12.753739 78.76548,12.569402 81.350058,12.417334 L 81.350058,10.000002 C 78.461403,10.15207 75.207897,10.228096 71.635121,10.228052 C 69.563652,10.228096 66.564803,10.15207 62.649944,10.000002 z M 85.363741,10.000002 L 85.363741,12.417334 C 87.834287,12.569402 89.2786,12.755636 89.696695,12.964654 C 89.981754,13.116722 90.175593,13.361878 90.289625,13.694415 C 90.403643,14.027025 90.479669,15.857119 90.517675,19.258839 C 90.593687,24.237966 90.654505,28.038793 90.654505,30.661348 C 90.654505,37.502868 90.559476,42.200686 90.426455,44.709238 C 90.350429,45.906513 90.129983,46.640068 89.787915,46.94413 C 89.445832,47.248207 87.986311,47.495245 85.363741,47.628281 L 85.363741,50.000002 L 94.987458,49.817562 C 96.659822,49.817562 98.560235,49.83277 100.68871,49.908782 L 104.01825,50.000002 L 104.01825,47.628281 C 101.75673,47.476242 100.46635,47.314717 100.09578,47.17218 C 99.725181,47.029658 99.48004,46.826303 99.366022,46.57925 C 99.080948,46.028135 98.92132,44.296851 98.864311,41.379706 C 98.807288,38.462576 98.773077,33.283932 98.773091,25.872294 C 98.773077,20.304104 98.8301,16.613486 99.001142,14.789056 C 99.096142,13.857881 99.307101,13.266848 99.639682,13.010264 C 99.972234,12.753739 101.43367,12.569402 104.01825,12.417334 L 104.01825,10.000002 C 101.12959,10.15207 97.921694,10.228096 94.348918,10.228052 C 92.277449,10.228096 89.2786,10.15207 85.363741,10.000002 z"
       style="fill:url(#radialGradient3259);fill-opacity:1;fill-rule:nonzero;stroke:none;stroke-width:1.574;stroke-linecap:round;stroke-linejoin:round;stroke-miterlimit:4;stroke-dasharray:none;stroke-dashoffset:0.4;stroke-opacity:1;display:inline" />
  </g>
</svg>
